# xmcd CD database file
#
# Track frame offsets:
#	150
#	10996
#	23798
#	37126
#	39867
#	50222
#	63924
#	71670
#	82542
#	87888
#	104364
#	118547
#
# Disc length: 1819 seconds
#
# Revision: 5
# Processed by: cddbd v1.5.1PL0 Copyright (c) Steve Scherf et al.
# Submitted via: CDex 1.51
#
DISCID=9207190c
DTITLE=LES VILAINS CLOWNS - Gros Loulou Is Not Dead
DYEAR=2005
DGENRE=Jazz
TTITLE0=Mieux Vaut Avoir Un Nez Rouge Qu'Un Front National
TTITLE1=4eme CPPN
TTITLE2=Mon Meilleur Ami est Une Salope
TTITLE3=La Danse De La Bière
TTITLE4=Le Repas De Famille
TTITLE5=Une Putain D'Salle Nuit
TTITLE6=C'En Est Trop
TTITLE7=L'Air (Con)ditionne
TTITLE8=J'Aime Joanna
TTITLE9=J'Ai Mal Au Genou
TTITLE10=Gros Loulou Is Not Dead
TTITLE11=La Chanson Gratuite
EXTD=YEAR: 2005
EXTT0=
EXTT1=
EXTT2=
EXTT3=
EXTT4=
EXTT5=
EXTT6=
EXTT7=
EXTT8=
EXTT9=
EXTT10=
EXTT11=
PLAYORDER=
